<?xml version="1.0" standalone="no"?>
<!DOCTYPE svg PUBLIC "-//W3C//DTD SVG 20010904//EN"
 "http://www.w3.org/TR/2001/REC-SVG-20010904/DTD/svg10.dtd">
<svg version="1.0" xmlns="http://www.w3.org/2000/svg"
 width="724.000000pt" height="772.000000pt" viewBox="0 0 724.000000 772.000000"
 preserveAspectRatio="xMidYMid meet">

<g transform="translate(0.000000,772.000000) scale(0.100000,-0.100000)"
fill="#FF0000" stroke="none">
<path d="M3720 5549 c-11 -19 -48 -90 -82 -159 -156 -319 -373 -691 -614
-1050 -39 -58 -73 -112 -76 -121 -6 -16 -4 -19 196 -274 120 -151 122 -155
241 -289 150 -171 277 -306 289 -305 14 0 251 290 348 425 101 140 144 188
162 181 8 -3 23 -21 32 -39 15 -30 93 -150 236 -368 86 -131 262 -372 305
-419 l41 -46 249 -6 c136 -4 250 -5 252 -3 8 8 -28 72 -86 152 -32 44 -112
160 -178 257 -66 97 -143 208 -171 248 -48 70 -134 195 -350 512 -95 139 -222
334 -269 411 -261 433 -418 718 -470 849 -15 39 -29 72 -31 74 -1 2 -12 -12
-24 -30z m35 -250 c7 -32 199 -372 333 -591 94 -153 94 -152 77 -240 -7 -40
-16 -108 -20 -150 -6 -64 -10 -78 -24 -78 -18 0 -172 176 -232 265 l-37 54
-25 -57 c-14 -31 -36 -93 -47 -137 -12 -44 -33 -117 -45 -161 -13 -45 -29
-110 -35 -145 -14 -82 -19 -99 -30 -99 -12 0 -45 114 -75 260 -15 69 -33 147
-41 174 -8 27 -14 63 -14 80 0 39 -12 58 -31 51 -8 -3 -45 -43 -84 -90 -38
-46 -73 -81 -77 -76 -4 4 -9 70 -10 146 -3 164 -25 109 189 481 162 280 201
344 214 344 4 0 11 -14 14 -31z"/>
<path d="M4707 4888 c-40 -50 -212 -295 -246 -351 -22 -36 -22 -39 -6 -63 27
-42 67 -18 133 81 36 53 123 155 133 155 5 0 16 -16 24 -37 20 -47 169 -306
261 -455 61 -97 104 -178 104 -194 0 -12 -33 -1 -52 18 -27 27 -146 42 -135
17 23 -56 138 -313 157 -351 13 -26 31 -50 39 -54 9 -4 99 -17 201 -30 102
-12 197 -25 213 -28 15 -4 27 -4 27 -1 0 14 -36 74 -75 125 -36 48 -182 265
-210 312 -5 9 -35 55 -66 100 -154 228 -405 661 -440 761 -7 20 -16 37 -20 37
-4 0 -23 -19 -42 -42z"/>
<path d="M2418 4703 c-130 -270 -324 -605 -477 -823 -119 -170 -314 -421 -471
-605 -122 -143 -114 -133 -100 -150 7 -8 19 -15 28 -15 16 0 387 -116 411
-128 14 -8 201 -369 249 -482 15 -36 33 -74 39 -85 12 -20 12 -20 26 0 14 19
125 319 148 403 7 23 16 42 22 42 5 0 75 -62 156 -137 80 -76 175 -165 211
-198 36 -33 106 -99 155 -147 50 -49 97 -88 105 -88 7 0 21 6 29 14 20 17 295
156 310 156 6 0 16 9 23 20 16 25 30 25 53 0 10 -11 23 -20 30 -20 6 0 38 -13
71 -29 32 -16 102 -48 154 -71 52 -23 121 -55 153 -71 90 -45 93 -43 100 54 4
45 7 121 7 170 0 48 4 87 9 87 5 0 40 -14 77 -31 38 -17 85 -38 104 -47 19 -8
104 -48 188 -89 85 -40 180 -84 212 -97 l59 -24 -10 26 c-13 35 -143 174 -519
556 -174 177 -354 362 -400 411 -47 50 -119 126 -160 170 -313 333 -740 927
-909 1263 -17 34 -32 62 -34 62 -1 0 -23 -44 -49 -97z m105 -243 c52 -90 193
-299 267 -395 26 -33 64 -82 84 -110 64 -84 117 -148 164 -196 64 -68 57 -83
-40 -87 l-76 -3 -4 -30 c-3 -17 0 -149 5 -295 5 -145 7 -271 3 -280 -9 -24
-30 -3 -51 54 -10 26 -80 173 -155 327 -76 154 -144 300 -151 323 l-12 43 -29
-28 c-16 -15 -47 -63 -69 -108 -63 -124 -89 -143 -89 -62 0 23 -4 48 -9 56
-10 15 -31 -3 -238 -202 -54 -52 -97 -86 -103 -82 -12 8 -11 29 11 295 11 124
11 125 65 225 30 55 73 132 95 170 23 39 50 84 60 102 10 17 29 49 42 71 14
21 56 98 93 171 37 72 72 130 78 128 6 -2 32 -41 59 -87z"/>
<path d="M4082 3691 c-88 -120 -189 -244 -269 -332 -77 -86 -80 -94 -41 -148
15 -22 17 -22 41 -7 13 9 55 54 93 99 183 219 246 287 259 280 7 -5 44 -58 82
-119 111 -182 292 -465 334 -524 61 -86 47 -107 -32 -47 -24 19 -78 57 -119
84 -41 28 -86 63 -99 77 -37 40 -49 33 -56 -31 -12 -109 -6 -103 -85 -103 -70
0 -70 0 -70 -27 0 -23 45 -73 272 -296 150 -147 282 -270 293 -273 11 -2 49 7
85 22 36 15 94 35 128 45 35 10 71 24 79 30 11 10 20 9 41 -3 15 -9 56 -21 92
-27 36 -5 82 -13 104 -17 37 -7 38 -6 26 16 -7 12 -53 70 -104 129 -50 58
-129 153 -176 211 -46 58 -119 146 -160 195 -77 90 -213 261 -240 302 -8 12
-41 55 -72 96 -91 119 -283 412 -301 460 -3 9 -10 17 -15 17 -5 0 -46 -49 -90
-109z"/>
</g>
</svg>
